# xmcd CD database file
#
# Track frame offsets:
#	150
#	12197
#	27450
#	41140
#	55350
#	74015
#	87292
#	105645
#	122697
#	139215
#	154287
#	167840
#
# Disc length: 2466 seconds
#
# Revision: 0
# Processed by: cddbd v1.5.2PL0 Copyright (c) Steve Scherf et al.
# Submitted via: CDex 1.51
#
DISCID=ab09a00c
DTITLE=THE TRAVELLERS - THE TRAVELLERS
DYEAR=2001
DGENRE=Jazz
TTITLE0=Stompin' At The Corona
TTITLE1=Pink Champagne
TTITLE2=Going Back To New Orleans
TTITLE3=Louisiana
TTITLE4=Is You Is, Or Is You Ain't Ma' Baby
TTITLE5=Knock Me A Kiss
TTITLE6=It's Only A Paper Moon
TTITLE7=Ghost Riders In The Sky
TTITLE8=Rhythm In The Barnyard
TTITLE9=Sweet Sue, Just You
TTITLE10=That Mellow Saxphone
TTITLE11=Jump, Jive, An' Wail
EXTD=YEAR: 2001
EXTT0=
EXTT1=
EXTT2=
EXTT3=
EXTT4=
EXTT5=
EXTT6=
EXTT7=
EXTT8=
EXTT9=
EXTT10=
EXTT11=
PLAYORDER=
